{
	"asset":{
		"generator":"Khronos glTF Blender I/O v4.1.63",
		"version":"2.0"
	},
	"scene":0,
	"scenes":[
		{
			"name":"Scene",
			"nodes":[
				0
			]
		}
	],
	"nodes":[
		{
			"mesh":0,
			"name":"Sphere"
		}
	],
	"materials":[
		{
			"doubleSided":true,
			"name":"Material.001",
			"pbrMetallicRoughness":{
				"baseColorTexture":{
					"index":0
				},
				"metallicFactor":0,
				"roughnessFactor":0.5
			}
		}
	],
	"meshes":[
		{
			"name":"Sphere",
			"primitives":[
				{
					"attributes":{
						"POSITION":0,
						"NORMAL":1,
						"TEXCOORD_0":2
					},
					"indices":3,
					"material":0
				}
			]
		}
	],
	"textures":[
		{
			"sampler":0,
			"source":0
		}
	],
	"images":[
		{
			"mimeType":"image/jpeg",
			"name":"texture",
			"uri":"texture.jpg"
		}
	],
	"accessors":[
		{
			"bufferView":0,
			"componentType":5126,
			"count":1135,
			"max":[
				9.399275779724121,
				4.929999828338623,
				8.782496452331543
			],
			"min":[
				-9.399274826049805,
				-4.929999828338623,
				-8.782496452331543
			],
			"type":"VEC3"
		},
		{
			"bufferView":1,
			"componentType":5126,
			"count":1135,
			"type":"VEC3"
		},
		{
			"bufferView":2,
			"componentType":5126,
			"count":1135,
			"type":"VEC2"
		},
		{
			"bufferView":3,
			"componentType":5123,
			"count":6336,
			"type":"SCALAR"
		}
	],
	"bufferViews":[
		{
			"buffer":0,
			"byteLength":13620,
			"byteOffset":0,
			"target":34962
		},
		{
			"buffer":0,
			"byteLength":13620,
			"byteOffset":13620,
			"target":34962
		},
		{
			"buffer":0,
			"byteLength":9080,
			"byteOffset":27240,
			"target":34962
		},
		{
			"buffer":0,
			"byteLength":12672,
			"byteOffset":36320,
			"target":34963
		}
	],
	"samplers":[
		{
			"magFilter":9729,
			"minFilter":9987
		}
	],
	"buffers":[
		{
			"byteLength":48992,
			"uri":"saturn.bin"
		}
	]
}
